<?xml version="1.0" encoding="UTF-8" standalone="no"?>
<!DOCTYPE svg PUBLIC "-//W3C//DTD SVG 1.1//EN" "http://www.w3.org/Graphics/SVG/1.1/DTD/svg11.dtd">
<svg width="100%" height="100%" viewBox="0 0 729 247" version="1.1" xmlns="http://www.w3.org/2000/svg" xmlns:xlink="http://www.w3.org/1999/xlink" xml:space="preserve" xmlns:serif="http://www.serif.com/" style="fill-rule:evenodd;clip-rule:evenodd;">
    <g transform="matrix(1,0,0,1,-56.2798,-91.2607)">
        <g transform="matrix(1,0,0,1,0,-416.693)">
            <g id="g5169" transform="matrix(0.666396,0,0,0.666396,-55.6456,368.618)">
                <g id="g9807">
                    <g id="g9873" transform="matrix(0.174533,-0.984651,0.984651,0.174533,44.2501,631.961)">
                        <ellipse id="path10" cx="288.315" cy="262.146" rx="167.182" ry="167.182" style="fill:white;stroke:black;stroke-opacity:0.96;stroke-width:8.5px;"/>
                        <path id="path4689" d="M248.498,201.706L193.192,123.671" style="fill:none;fill-rule:nonzero;stroke:black;stroke-width:0.75px;"/>
                        <path id="path4691" d="M220.466,235.041L134.098,196.402" style="fill:none;fill-rule:nonzero;stroke:black;stroke-width:0.75px;"/>
                        <path id="path4693" d="M401.536,320.651L437.144,335.803" style="fill:none;fill-rule:nonzero;stroke:black;stroke-width:0.75px;"/>
                        <path id="path4695" d="M386.383,346.41L414.415,371.411" style="fill:none;fill-rule:nonzero;stroke:black;stroke-width:0.75px;"/>
                        <path id="path4697" d="M346.987,190.341L377.292,118.368" style="fill:none;fill-rule:nonzero;stroke:black;stroke-width:0.75px;"/>
                        <path id="path4699" d="M378.807,212.312L428.052,169.886" style="fill:none;fill-rule:nonzero;stroke:black;stroke-width:0.75px;"/>
                        <path id="path4701" d="M234.103,346.41L185.616,393.382" style="fill:none;fill-rule:nonzero;stroke:black;stroke-width:0.75px;"/>
                        <path id="path4703" d="M262.135,369.896L244.709,422.929" style="fill:none;fill-rule:nonzero;stroke:black;stroke-width:0.75px;"/>
                        <g id="path4705" transform="matrix(0.264583,0,0,0.264583,0,0)">
                            <path d="M674.239,814.142C591.615,777.107 523.392,746.186 522.633,745.427C519.917,742.711 549.977,685.441 571.222,652.854C596.99,613.331 627.278,576.673 660.472,544.832C687.1,519.291 730.979,483.603 735.624,483.71C737.24,483.748 782.473,545.818 836.141,621.644L933.718,759.51L914.057,776.432C885.599,800.924 858.408,833.419 836.187,869.489C832.063,876.182 827.739,881.618 826.578,881.567C825.416,881.517 756.864,851.176 674.239,814.142Z" style="fill-rule:nonzero;stroke:black;stroke-opacity:0.96;stroke-width:21.64px;stroke-dasharray:183.26,7.64;stroke-dashoffset:75.59;"/>
                        </g>
                        <g id="path4707" transform="matrix(0.264583,0,0,0.264583,0,0)">
                            <path d="M1422.92,776.909C1398.42,754.892 1342.52,719.236 1321.79,712.4C1319.11,711.514 1332.62,676.473 1368.6,590.956C1396.43,524.847 1419.76,470.168 1420.46,469.448C1425.14,464.604 1482.01,509.802 1524.78,552.365C1560.26,587.673 1604.75,640.579 1604.75,647.459C1604.75,650.174 1442.5,790.065 1439.55,789.901C1438.28,789.83 1430.8,783.984 1422.92,776.909Z" style="fill-rule:nonzero;stroke:black;stroke-opacity:0.96;stroke-width:21.64px;stroke-dasharray:183.26,7.64;stroke-dashoffset:75.59;"/>
                        </g>
                        <g id="path4709" transform="matrix(0.264583,0,0,0.264583,0,0)">
                            <path d="M1514.02,1353.44C1469.2,1313.65 1468.15,1312.46 1472.98,1306.88C1482.82,1295.52 1501.63,1265.61 1513.28,1242.81C1519.82,1230.01 1526.05,1219.54 1527.12,1219.54C1530.29,1219.54 1637.45,1265.78 1640.19,1268.33C1645.76,1273.52 1600.62,1344.8 1561.81,1392.09C1560.82,1393.29 1539.32,1375.9 1514.02,1353.44Z" style="fill-rule:nonzero;stroke:black;stroke-opacity:0.96;stroke-width:21.64px;stroke-dasharray:183.26,7.64;stroke-dashoffset:75.59;"/>
                        </g>
                        <g id="path4711" transform="matrix(0.264583,0,0,0.264583,0,0)">
                            <path d="M896.052,1579.07C837.16,1559.17 796.471,1539.09 743.333,1503.69L710.878,1482.08L731.879,1461.36C743.43,1449.96 780.399,1414.06 814.033,1381.59L875.185,1322.53L901.443,1347.63C915.886,1361.44 937.726,1379.18 949.978,1387.05C962.23,1394.93 974.941,1403.4 978.226,1405.88C984.181,1410.37 984.11,1410.65 954.443,1499.56L924.686,1588.74L896.052,1579.07Z" style="fill-rule:nonzero;stroke:black;stroke-opacity:0.96;stroke-width:21.64px;stroke-dasharray:183.26,7.64;stroke-dashoffset:75.59;"/>
                        </g>
                        <g id="path4713" transform="matrix(0.264583,0,0,0.264583,0,0)">
                            <path d="M589.47,624.27C588.943,623.841 588.982,623.781 593.802,617.381C596.477,613.83 599.4,609.992 600.298,608.853L601.931,606.783L602.615,607.335L603.299,607.887L602.1,609.406C601.441,610.241 598.582,613.999 595.746,617.758C592.91,621.516 590.458,624.616 590.296,624.647C590.134,624.678 589.762,624.508 589.47,624.27Z" style="fill-rule:nonzero;stroke:black;stroke-opacity:0.96;stroke-width:1.91px;stroke-dasharray:16.2,0.67;stroke-dashoffset:75.59;"/>
                        </g>
                        <g id="path4717" transform="matrix(0.264583,0,0,0.264583,0,0)">
                            <path d="M602.522,608.944C602.513,608.93 602.683,608.695 602.9,608.422C603.116,608.149 603.293,607.913 603.293,607.898C603.293,607.883 603.211,607.802 603.111,607.718C603.011,607.634 602.917,607.556 602.902,607.543C602.888,607.532 602.888,607.498 602.903,607.471C602.926,607.43 602.968,607.451 603.152,607.596C603.273,607.693 603.391,607.79 603.415,607.813C603.45,607.848 603.384,607.948 603.021,608.412C602.782,608.719 602.575,608.969 602.562,608.969C602.548,608.969 602.53,608.958 602.522,608.944L602.522,608.944Z" style="fill-rule:nonzero;stroke:black;stroke-opacity:0.96;stroke-width:0.24px;stroke-dasharray:2.02,0.08;stroke-dashoffset:75.59;"/>
                        </g>
                        <g id="path4719" transform="matrix(0.264583,0,0,0.264583,0,0)">
                            <path d="M1438.03,792.316C1437.24,791.554 1435.66,790.032 1434.52,788.933L1432.45,786.934L1433.31,785.844L1435.31,787.332C1437.8,789.176 1438.71,789.751 1439.35,789.878C1439.77,789.963 1440.19,789.715 1442.15,788.245C1443.41,787.292 1445.85,785.378 1447.57,783.991L1450.68,781.47L1451.29,782.174C1451.62,782.561 1451.87,782.936 1451.85,783.008C1451.82,783.125 1439.6,793.709 1439.5,793.703C1439.48,793.701 1438.82,793.077 1438.03,792.316Z" style="fill-rule:nonzero;stroke:black;stroke-opacity:0.96;stroke-width:1.35px;stroke-dasharray:11.45,0.48;stroke-dashoffset:75.59;"/>
                        </g>
                        <g id="path4721" transform="matrix(0.264583,0,0,0.264583,0,0)">
                            <path d="M1443.23,787.369C1443.21,787.346 1443.19,787.37 1443.56,787.082C1443.73,786.95 1443.96,786.77 1444.07,786.682C1444.26,786.531 1444.27,786.523 1444.29,786.543C1444.31,786.571 1444.31,786.572 1444.28,786.594C1444.27,786.606 1444.03,786.787 1443.76,787C1443.49,787.212 1443.26,787.386 1443.25,787.386C1443.25,787.386 1443.24,787.378 1443.23,787.369L1443.23,787.369Z" style="fill-rule:nonzero;stroke:black;stroke-opacity:0.96;stroke-width:0.08px;stroke-dasharray:0.72,0.03;stroke-dashoffset:75.59;"/>
                        </g>
                        <path id="path4735" d="M380.368,206.261C380.445,206.337 380.525,206.411 380.601,206.488C380.676,206.564 380.75,206.64 380.823,206.718C380.897,206.802 380.977,206.879 381.056,206.957C381.126,207.021 381.192,207.09 381.264,207.152C381.321,207.186 381.377,207.218 381.427,207.263C381.45,207.289 381.475,207.315 381.497,207.343L381.2,207.521C381.181,207.494 381.157,207.469 381.134,207.445C381.083,207.401 381.024,207.375 380.971,207.334C380.9,207.27 380.836,207.2 380.766,207.135C380.686,207.057 380.604,206.981 380.531,206.897C380.458,206.819 380.385,206.743 380.311,206.666C380.234,206.588 380.153,206.516 380.072,206.443L380.369,206.261L380.368,206.261Z" style="fill-rule:nonzero;stroke:black;stroke-opacity:0.96;stroke-width:5.67px;stroke-dasharray:48,2;stroke-dashoffset:75.59;"/>
                        <path id="path4747" d="M378.359,208.252C378.466,208.494 378.537,208.756 378.675,208.982C378.692,209.01 378.71,209.038 378.728,209.066L377.527,209.765C377.51,209.735 377.492,209.706 377.474,209.677C377.339,209.441 377.268,209.176 377.146,208.934L378.359,208.252L378.359,208.252Z" style="fill-rule:nonzero;stroke:black;stroke-opacity:0.96;stroke-width:5.67px;stroke-dasharray:48,2;stroke-dashoffset:75.59;"/>
                        <path id="path4749" d="M380.246,208.131C380.37,208.3 380.474,208.483 380.582,208.663L379.392,209.353C379.288,209.178 379.188,209 379.054,208.846L380.246,208.131Z" style="fill-rule:nonzero;stroke:black;stroke-opacity:0.96;stroke-width:5.67px;stroke-dasharray:48,2;stroke-dashoffset:75.59;"/>
                        <path id="path4753" d="M369.984,137.359L367.547,143.265" style="fill:none;fill-rule:nonzero;stroke:black;stroke-width:0.75px;"/>
                        <path id="path4755" d="M368.672,136.796L366.094,142.89" style="fill:none;fill-rule:nonzero;stroke:black;stroke-width:0.75px;"/>
                        <path id="path4757" d="M368.672,136.796L366.094,142.89" style="fill:none;fill-rule:nonzero;stroke:black;stroke-width:0.75px;"/>
                        <path id="path4759" d="M368.672,136.796L367.781,136.468L365.438,142.093" style="fill:none;fill-rule:nonzero;stroke:black;stroke-width:0.75px;"/>
                        <path id="path4761" d="M371.766,138.952L368.672,136.796L366.094,142.89" style="fill:none;fill-rule:nonzero;stroke:black;stroke-width:0.75px;"/>
                        <path id="path4763" d="M369.984,137.359L368.672,136.796L367.547,143.265" style="fill:none;fill-rule:nonzero;stroke:black;stroke-width:0.75px;"/>
                        <path id="path4765" d="M367.922,139.374L366.094,142.89" style="fill:none;fill-rule:nonzero;stroke:black;stroke-width:0.75px;"/>
                        <path id="path4767" d="M366.094,142.89L369.281,135.952" style="fill:none;fill-rule:nonzero;stroke:black;stroke-width:0.75px;"/>
                        <path id="path4769" d="M368.672,136.796L371.109,137.78L370.5,138.249" style="fill:none;fill-rule:nonzero;stroke:black;stroke-width:0.75px;"/>
                        <path id="path4773" d="M369,134.265L365.344,143.827" style="fill:none;fill-rule:nonzero;stroke:black;stroke-width:0.75px;"/>
                        <path id="path4775" d="M363.469,147.437L366.656,139.937" style="fill:none;fill-rule:nonzero;stroke:black;stroke-width:0.75px;"/>
                        <path id="path4777" d="M386.039,208.187L382.266,211.679" style="fill:none;fill-rule:nonzero;stroke:black;stroke-width:0.75px;"/>
                        <path id="path4779" d="M386.93,206.991L381.773,211.538" style="fill:none;fill-rule:nonzero;stroke:black;stroke-width:0.75px;"/>
                        <g id="path4781" transform="matrix(0.264583,0,0,0.264583,0,0)">
                            <path d="M1627.14,1300.45C1626.86,1300.29 1626.6,1300.13 1626.55,1300.11C1626.49,1300.07 1626.56,1299.92 1627.12,1298.96C1630.79,1292.72 1634.06,1286.72 1636.24,1282.25C1636.53,1281.65 1636.78,1281.15 1636.79,1281.13C1636.82,1281.1 1638.09,1281.68 1638.16,1281.75C1638.19,1281.77 1638.15,1281.84 1636.65,1284.64C1634.82,1288.05 1633.09,1291.19 1631.18,1294.61C1629.84,1296.99 1627.72,1300.71 1627.68,1300.74C1627.66,1300.75 1627.42,1300.62 1627.14,1300.45Z" style="fill-rule:nonzero;stroke:black;stroke-opacity:0.96;stroke-width:0.33px;stroke-dasharray:2.83,0.12;stroke-dashoffset:75.59;"/>
                        </g>
                        <path id="path4783" d="M434.086,338.862C434.086,338.862 430.523,344.956 430.453,344.956L430.359,344.956C430.359,344.956 433.582,338.71 433.664,338.698L433.746,338.687L430.019,344.277" style="fill:none;fill-rule:nonzero;stroke:black;stroke-width:0.75px;"/>
                        <path id="path4791" d="M208.751,368.487L204.21,372.945" style="fill:none;fill-rule:nonzero;stroke:black;stroke-width:0.75px;"/>
                        <g id="path4795" transform="matrix(0.264583,0,0,0.264583,0,0)">
                            <path d="M774.901,1411.12L773.623,1409.8L773.868,1409.56C774.002,1409.43 777.269,1406.23 781.128,1402.45C784.986,1398.67 788.346,1395.37 788.594,1395.13L789.044,1394.69L790.198,1395.88C790.832,1396.53 791.425,1397.15 791.516,1397.26L791.681,1397.45L783.948,1404.95C779.695,1409.07 776.207,1412.44 776.197,1412.44C776.189,1412.44 775.604,1411.85 774.901,1411.12L774.901,1411.12Z" style="fill-rule:nonzero;stroke:black;stroke-opacity:0.96;stroke-width:0.47px;stroke-dasharray:4.01,0.17;stroke-dashoffset:75.59;"/>
                        </g>
                        <g id="path4797" transform="matrix(0.264583,0,0,0.264583,0,0)">
                            <path d="M778.637,1414.96L778.215,1414.54L785.961,1407.03L793.707,1399.53L794.129,1399.95L794.55,1400.37L793.476,1401.41C792.886,1401.99 789.683,1405.09 786.358,1408.3C783.034,1411.52 780.031,1414.43 779.686,1414.77L779.058,1415.38L778.637,1414.96Z" style="fill-rule:nonzero;stroke:black;stroke-opacity:0.96;stroke-width:0.47px;stroke-dasharray:4.01,0.17;stroke-dashoffset:75.59;"/>
                        </g>
                        <path id="path4801" d="M205.74,373.321L206.291,372.876" style="fill:none;fill-rule:nonzero;stroke:black;stroke-width:0.75px;"/>
                        <path id="path4803" d="M206.367,373.919L210.293,370.087" style="fill:none;fill-rule:nonzero;stroke:black;stroke-width:0.75px;"/>
                        <path id="path4805" d="M205.904,371.821C205.904,371.821 207.715,369.864 207.715,369.935L207.715,370.04L207.762,369.941" style="fill:none;fill-rule:nonzero;stroke:black;stroke-width:0.75px;"/>
                        <path id="path4807" d="M205.365,372.237L207.914,369.894" style="fill:none;fill-rule:nonzero;stroke:black;stroke-width:0.75px;"/>
                        <path id="path4809" d="M208.687,370.556L207.463,371.739" style="fill:none;fill-rule:nonzero;stroke:black;stroke-width:0.75px;"/>
                        <path id="path4811" d="M249.023,199.329L242.626,205.03" style="fill:none;fill-rule:nonzero;stroke:black;stroke-width:0.75px;"/>
                        <path id="path4813" d="M248.46,198.599L249.852,200.257" style="fill:none;fill-rule:nonzero;stroke:black;stroke-width:0.75px;"/>
                        <path id="path4815" d="M249.223,199.749L246.785,201.87" style="fill:none;fill-rule:nonzero;stroke:black;stroke-width:0.75px;"/>
                        <path id="path4817" d="M248.766,199.081L245.754,201.378" style="fill:none;fill-rule:nonzero;stroke:black;stroke-width:0.75px;"/>
                        <path id="path4821" d="M386.383,346.41L412,370.824" style="fill:none;fill-rule:nonzero;stroke:black;stroke-width:0.75px;"/>
                        <path id="path4823" d="M413.326,372.879L385.55,348.02" style="fill:none;fill-rule:nonzero;stroke:black;stroke-width:0.75px;"/>
                        <path id="path4825" d="M402.388,318.785L438.119,334.231" style="fill:none;fill-rule:nonzero;stroke:black;stroke-width:0.75px;"/>
                        <path id="path4831" d="M345.709,189.186L373.684,120.508" style="fill:none;fill-rule:nonzero;stroke:black;stroke-width:0.75px;"/>
                        <path id="path4833" d="M375.54,120.044L371.364,127.535" style="fill:none;fill-rule:nonzero;stroke:black;stroke-width:0.75px;"/>
                        <path id="path4835" d="M377.292,118.368L375.209,117.525L371.364,127.535" style="fill:none;fill-rule:nonzero;stroke:black;stroke-width:0.75px;"/>
                        <path id="path4837" d="M375.54,120.044L373.618,122.166" style="fill:none;fill-rule:nonzero;stroke:black;stroke-width:0.75px;"/>
                        <path id="path4839" d="M347.764,186.004L345.709,189.186" style="fill:none;fill-rule:nonzero;stroke:black;stroke-width:0.75px;"/>
                        <path id="path4843" d="M246.073,425.846L263.441,372.282" style="fill:none;fill-rule:nonzero;stroke:black;stroke-width:0.75px;"/>
                        <path id="path4845" d="M262.882,372.684L262.29,374.296" style="fill:none;fill-rule:nonzero;stroke:black;stroke-width:0.75px;"/>
                        <path id="path4847" d="M402.388,318.785C402.388,318.785 438.649,330.718 438.782,330.983C438.914,331.248 438.914,331.314 438.914,331.314" style="fill:none;fill-rule:nonzero;stroke:black;stroke-width:0.75px;"/>
                        <g id="path4849" transform="matrix(0.264583,0,0,0.264583,0,0)">
                            <path d="M1602.28,1238.39C1576.41,1227.2 1555.29,1218.01 1555.35,1217.95C1555.55,1217.75 1652.81,1250.29 1653.23,1250.7C1653.42,1250.89 1649.87,1258.56 1649.54,1258.66C1649.41,1258.7 1628.14,1249.58 1602.28,1238.39Z" style="fill-rule:nonzero;stroke:black;stroke-opacity:0.96;stroke-width:1.89px;stroke-dasharray:16.04,0.67;stroke-dashoffset:75.59;"/>
                        </g>
                        <path id="path4851" d="M408.951,321.503L438.119,334.231" style="fill:none;fill-rule:nonzero;stroke:black;stroke-width:0.75px;"/>
                        <path id="path4853" d="M406.233,320.376L438.914,331.314" style="fill:none;fill-rule:nonzero;stroke:black;stroke-width:0.75px;"/>
                        <path id="path4855" d="M439.909,334.563L434.473,332.375" style="fill:none;fill-rule:nonzero;stroke:black;stroke-width:0.75px;"/>
                    </g>
                    <g id="g5085" transform="matrix(0.581398,0,0,0.581398,-331.856,27.7392)">
                        <g id="ellipse5077" transform="matrix(0.2248,-0.9744,0.9744,0.2248,358.95,1652.87)">
                            <circle cx="1218.33" cy="600.945" r="166.677" style="fill:white;"/>
                        </g>
                        <g id="g5083">
                            <path id="path5079" d="M1217.48,760.252C1130.17,760.252 1059.02,689.102 1059.02,601.795C1059.02,514.488 1130.17,443.339 1217.48,443.339C1304.79,443.339 1375.94,514.488 1375.94,601.795C1375.94,689.102 1304.79,760.252 1217.48,760.252M1341.35,477.921C1308.19,444.756 1264.25,426.614 1217.48,426.614C1170.71,426.614 1126.77,444.756 1093.61,477.921C1060.44,511.087 1042.3,555.024 1042.3,601.795C1042.3,648.567 1060.44,692.504 1093.61,725.669C1126.77,758.835 1170.71,776.976 1217.48,776.976C1264.25,776.976 1308.19,758.835 1341.35,725.669C1374.52,692.787 1392.66,648.567 1392.66,601.795C1392.66,555.024 1374.52,511.087 1341.35,477.921" style="fill-rule:nonzero;"/>
                            <path id="path5081" d="M1213.8,589.89C1208.41,615.402 1180.63,628.441 1164.47,639.496L1164.47,511.087C1192.25,517.89 1224.57,539.15 1213.8,589.89M1164.76,497.48L1164.76,473.102L1149.45,473.102L1149.45,501.449C1138.96,504.567 1133.01,507.969 1134.14,509.953C1137.54,509.102 1142.93,508.535 1149.45,509.102L1149.45,656.504C1133.86,687.118 1156.25,733.89 1156.25,733.89C1156.25,733.89 1139.24,683.717 1176.94,659.906C1211.53,638.079 1330.87,648.283 1330.3,581.102C1329.73,485.575 1219.75,486.142 1164.76,497.48" style="fill-rule:nonzero;"/>
                        </g>
                    </g>
                </g>
            </g>
        </g>
        <g transform="matrix(1,0,0,1,0,-416.693)">
            <g transform="matrix(1,0,0,1,643.241,711.271)">
                <g id="text4937">
                    <g transform="matrix(88.6533,0,0,88.6533,0,0)">
                        <path d="M0.291,0L0.404,0L0.251,-0.388L0.404,-0.7L0.294,-0.7L0.15,-0.395L0.15,-0.7L0.04,-0.7L0.04,0L0.15,0L0.15,-0.215L0.184,-0.279L0.291,0Z" style="fill-rule:nonzero;"/>
                    </g>
                    <g transform="matrix(88.6533,0,0,88.6533,36.7025,0)">
                        <path d="M0.382,0C0.371,-0.026 0.37,-0.051 0.37,-0.085L0.37,-0.193C0.37,-0.266 0.352,-0.319 0.297,-0.342C0.346,-0.365 0.369,-0.412 0.369,-0.484L0.369,-0.539C0.369,-0.647 0.32,-0.7 0.206,-0.7L0.04,-0.7L0.04,0L0.15,0L0.15,-0.285L0.188,-0.285C0.238,-0.285 0.26,-0.261 0.26,-0.196L0.26,-0.086C0.26,-0.029 0.264,-0.018 0.27,0L0.382,0ZM0.203,-0.6C0.242,-0.6 0.259,-0.578 0.259,-0.528L0.259,-0.459C0.259,-0.403 0.234,-0.385 0.193,-0.385L0.15,-0.385L0.15,-0.6L0.203,-0.6Z" style="fill-rule:nonzero;"/>
                    </g>
                    <g transform="matrix(88.6533,0,0,88.6533,72.3411,0)">
                        <path d="M0.035,-0.7L0.035,-0.167C0.035,-0.055 0.091,0.009 0.199,0.009C0.307,0.009 0.363,-0.055 0.363,-0.167L0.363,-0.7L0.259,-0.7L0.259,-0.16C0.259,-0.11 0.237,-0.092 0.202,-0.092C0.167,-0.092 0.145,-0.11 0.145,-0.16L0.145,-0.7L0.035,-0.7Z" style="fill-rule:nonzero;"/>
                    </g>
                    <g transform="matrix(88.6533,0,0,88.6533,107.625,0)">
                        <path d="M0.15,-0.3L0.275,-0.3L0.275,0L0.387,0L0.387,-0.7L0.275,-0.7L0.275,-0.4L0.15,-0.4L0.15,-0.7L0.04,-0.7L0.04,0L0.15,0L0.15,-0.3Z" style="fill-rule:nonzero;"/>
                    </g>
                </g>
            </g>
        </g>
        <g transform="matrix(1,0,0,1,0,-416.693)">
            <g transform="matrix(1,0,0,1,308.125,627.978)">
                <g id="text4937-3">
                    <g transform="matrix(88.6533,0,0,88.6533,0,0)">
                        <path d="M0.202,-0.7L0.04,-0.7L0.04,0L0.15,0L0.15,-0.263L0.202,-0.263C0.312,-0.263 0.366,-0.324 0.366,-0.436L0.366,-0.527C0.366,-0.639 0.312,-0.7 0.202,-0.7ZM0.202,-0.6C0.237,-0.6 0.256,-0.584 0.256,-0.534L0.256,-0.429C0.256,-0.379 0.237,-0.363 0.202,-0.363L0.15,-0.363L0.15,-0.6L0.202,-0.6Z" style="fill-rule:nonzero;"/>
                    </g>
                    <g transform="matrix(88.6533,0,0,88.6533,33.4223,0)">
                        <rect x="0.04" y="-0.7" width="0.11" height="0.7" style="fill-rule:nonzero;"/>
                    </g>
                    <g transform="matrix(88.6533,0,0,88.6533,50.2664,0)">
                        <path d="M0.382,0C0.371,-0.026 0.37,-0.051 0.37,-0.085L0.37,-0.193C0.37,-0.266 0.352,-0.319 0.297,-0.342C0.346,-0.365 0.369,-0.412 0.369,-0.484L0.369,-0.539C0.369,-0.647 0.32,-0.7 0.206,-0.7L0.04,-0.7L0.04,0L0.15,0L0.15,-0.285L0.188,-0.285C0.238,-0.285 0.26,-0.261 0.26,-0.196L0.26,-0.086C0.26,-0.029 0.264,-0.018 0.27,0L0.382,0ZM0.203,-0.6C0.242,-0.6 0.259,-0.578 0.259,-0.528L0.259,-0.459C0.259,-0.403 0.234,-0.385 0.193,-0.385L0.15,-0.385L0.15,-0.6L0.203,-0.6Z" style="fill-rule:nonzero;"/>
                    </g>
                    <g transform="matrix(88.6533,0,0,88.6533,85.9051,0)">
                        <path d="M0.284,-0.7L0.123,-0.7L0.011,0L0.112,0L0.131,-0.127L0.266,-0.127L0.285,0L0.396,0L0.284,-0.7ZM0.198,-0.576L0.251,-0.222L0.145,-0.222L0.198,-0.576ZM0.213,-0.848L0.145,-0.737L0.219,-0.737L0.321,-0.848L0.213,-0.848Z" style="fill-rule:nonzero;"/>
                    </g>
                    <g transform="matrix(88.6533,0,0,88.6533,118.618,0)">
                        <path d="M0.008,-0.6L0.123,-0.6L0.123,0L0.233,0L0.233,-0.6L0.348,-0.6L0.348,-0.7L0.008,-0.7L0.008,-0.6Z" style="fill-rule:nonzero;"/>
                    </g>
                    <g transform="matrix(88.6533,0,0,88.6533,150.179,0)">
                        <path d="M0.026,-0.532C0.026,-0.332 0.241,-0.305 0.241,-0.161C0.241,-0.111 0.219,-0.093 0.184,-0.093C0.149,-0.093 0.127,-0.111 0.127,-0.161L0.127,-0.211L0.023,-0.211L0.023,-0.168C0.023,-0.056 0.079,0.008 0.187,0.008C0.295,0.008 0.351,-0.056 0.351,-0.168C0.351,-0.368 0.136,-0.395 0.136,-0.539C0.136,-0.589 0.156,-0.608 0.191,-0.608C0.226,-0.608 0.246,-0.589 0.246,-0.539L0.246,-0.51L0.35,-0.51L0.35,-0.532C0.35,-0.644 0.295,-0.708 0.188,-0.708C0.081,-0.708 0.026,-0.644 0.026,-0.532Z" style="fill-rule:nonzero;"/>
                    </g>
                    <g transform="matrix(88.6533,0,0,88.6533,183.335,0)">
                        <path d="M0.291,0L0.404,0L0.251,-0.388L0.404,-0.7L0.294,-0.7L0.15,-0.395L0.15,-0.7L0.04,-0.7L0.04,0L0.15,0L0.15,-0.215L0.184,-0.279L0.291,0Z" style="fill-rule:nonzero;"/>
                    </g>
                    <g transform="matrix(88.6533,0,0,88.6533,220.038,0)">
                        <path d="M0.143,0L0.253,0L0.253,-0.232L0.392,-0.7L0.287,-0.7L0.203,-0.381L0.119,-0.7L0.004,-0.7L0.143,-0.232L0.143,0ZM0.212,-0.848L0.144,-0.737L0.218,-0.737L0.32,-0.848L0.212,-0.848Z" style="fill-rule:nonzero;"/>
                    </g>
                </g>
            </g>
        </g>
        <g transform="matrix(1,0,0,1,0,-416.693)">
            <g transform="matrix(1,0,0,1,307.443,711.942)">
                <g id="text4937-5">
                    <g transform="matrix(88.6533,0,0,88.6533,0,0)">
                        <path d="M0.033,-0.7L0.033,-0.6L0.232,-0.6L0.023,-0.098L0.023,0L0.345,0L0.345,-0.1L0.136,-0.1L0.345,-0.602L0.345,-0.7L0.033,-0.7Z" style="fill-rule:nonzero;"/>
                    </g>
                    <g transform="matrix(88.6533,0,0,88.6533,32.8017,0)">
                        <path d="M0.284,-0.7L0.123,-0.7L0.011,0L0.112,0L0.131,-0.127L0.266,-0.127L0.285,0L0.396,0L0.284,-0.7ZM0.198,-0.576L0.251,-0.222L0.145,-0.222L0.198,-0.576ZM0.213,-0.848L0.145,-0.737L0.219,-0.737L0.321,-0.848L0.213,-0.848Z" style="fill-rule:nonzero;"/>
                    </g>
                    <g transform="matrix(88.6533,0,0,88.6533,68.795,0)">
                        <path d="M0.255,-0.261L0.255,-0.161C0.255,-0.111 0.233,-0.093 0.198,-0.093C0.163,-0.093 0.141,-0.111 0.141,-0.161L0.141,-0.539C0.141,-0.589 0.163,-0.608 0.198,-0.608C0.233,-0.608 0.255,-0.589 0.255,-0.539L0.255,-0.464L0.359,-0.464L0.359,-0.532C0.359,-0.644 0.303,-0.708 0.195,-0.708C0.087,-0.708 0.031,-0.644 0.031,-0.532L0.031,-0.168C0.031,-0.056 0.087,0.008 0.195,0.008C0.303,0.008 0.359,-0.056 0.359,-0.168L0.359,-0.261L0.255,-0.261Z" style="fill-rule:nonzero;"/>
                    </g>
                    <g transform="matrix(88.6533,0,0,88.6533,103.015,0)">
                        <path d="M0.15,-0.3L0.275,-0.3L0.275,0L0.387,0L0.387,-0.7L0.275,-0.7L0.275,-0.4L0.15,-0.4L0.15,-0.7L0.04,-0.7L0.04,0L0.15,0L0.15,-0.3Z" style="fill-rule:nonzero;"/>
                    </g>
                    <g transform="matrix(88.6533,0,0,88.6533,140.87,0)">
                        <path d="M0.382,0C0.371,-0.026 0.37,-0.051 0.37,-0.085L0.37,-0.193C0.37,-0.266 0.352,-0.319 0.297,-0.342C0.346,-0.365 0.369,-0.412 0.369,-0.484L0.369,-0.539C0.369,-0.647 0.32,-0.7 0.206,-0.7L0.04,-0.7L0.04,0L0.15,0L0.15,-0.285L0.188,-0.285C0.238,-0.285 0.26,-0.261 0.26,-0.196L0.26,-0.086C0.26,-0.029 0.264,-0.018 0.27,0L0.382,0ZM0.203,-0.6C0.242,-0.6 0.259,-0.578 0.259,-0.528L0.259,-0.459C0.259,-0.403 0.234,-0.385 0.193,-0.385L0.15,-0.385L0.15,-0.6L0.203,-0.6Z" style="fill-rule:nonzero;"/>
                    </g>
                    <g transform="matrix(88.6533,0,0,88.6533,176.509,0)">
                        <path d="M0.284,-0.7L0.123,-0.7L0.011,0L0.112,0L0.131,-0.127L0.266,-0.127L0.285,0L0.396,0L0.284,-0.7ZM0.198,-0.576L0.251,-0.222L0.145,-0.222L0.198,-0.576Z" style="fill-rule:nonzero;"/>
                    </g>
                    <g transform="matrix(88.6533,0,0,88.6533,212.591,0)">
                        <path d="M0.275,0L0.388,0L0.388,-0.7L0.29,-0.7L0.29,-0.281L0.177,-0.7L0.039,-0.7L0.039,0L0.138,0L0.138,-0.507L0.275,0Z" style="fill-rule:nonzero;"/>
                    </g>
                    <g transform="matrix(88.6533,0,0,88.6533,250.446,0)">
                        <path d="M0.275,0L0.388,0L0.388,-0.7L0.29,-0.7L0.29,-0.281L0.177,-0.7L0.039,-0.7L0.039,0L0.138,0L0.138,-0.507L0.275,0Z" style="fill-rule:nonzero;"/>
                    </g>
                    <g transform="matrix(88.6533,0,0,88.6533,288.301,0)">
                        <path d="M0.143,0L0.253,0L0.253,-0.232L0.392,-0.7L0.287,-0.7L0.203,-0.381L0.119,-0.7L0.004,-0.7L0.143,-0.232L0.143,0ZM0.212,-0.848L0.144,-0.737L0.218,-0.737L0.32,-0.848L0.212,-0.848Z" style="fill-rule:nonzero;"/>
                    </g>
                </g>
            </g>
        </g>
    </g>
</svg>
